<svg height="1966" width="720" xmlns="http://www.w3.org/2000/svg">
<rect height="1966" fill="#555" width="720"></rect>
<text fill="#7f7" font-family="Courier New" font-size="12" xml:space="preserve">
<tspan x="10" y="26">5 megabytes installed</tspan>
<tspan x="10" y="42"></tspan>
<tspan x="10" y="58">node_modules</tspan>
<tspan x="10" y="74">└─┬ gulp-cheerio@0.6.2 </tspan>
<tspan x="10" y="90">  ├─┬ cheerio@0.22.0 </tspan>
<tspan x="10" y="106">  │ ├─┬ css-select@1.2.0 </tspan>
<tspan x="10" y="122">  │ │ ├── boolbase@1.0.0 </tspan>
<tspan x="10" y="138">  │ │ ├── css-what@2.1.0 </tspan>
<tspan x="10" y="154">  │ │ ├── domutils@1.5.1 </tspan>
<tspan x="10" y="170">  │ │ └── nth-check@1.0.1 </tspan>
<tspan x="10" y="186">  │ ├─┬ dom-serializer@0.1.0 </tspan>
<tspan x="10" y="202">  │ │ └── domelementtype@1.1.3 </tspan>
<tspan x="10" y="218">  │ ├── entities@1.1.1 </tspan>
<tspan x="10" y="234">  │ ├─┬ htmlparser2@3.9.2 </tspan>
<tspan x="10" y="250">  │ │ ├── domelementtype@1.3.0 </tspan>
<tspan x="10" y="266">  │ │ ├── domhandler@2.3.0 </tspan>
<tspan x="10" y="282">  │ │ ├── inherits@2.0.3 </tspan>
<tspan x="10" y="298">  │ │ └─┬ readable-stream@2.2.9 </tspan>
<tspan x="10" y="314">  │ │   ├── buffer-shims@1.0.0 </tspan>
<tspan x="10" y="330">  │ │   ├── isarray@1.0.0 </tspan>
<tspan x="10" y="346">  │ │   ├── process-nextick-args@1.0.7 </tspan>
<tspan x="10" y="362">  │ │   ├── string_decoder@1.0.0 </tspan>
<tspan x="10" y="378">  │ │   └── util-deprecate@1.0.2 </tspan>
<tspan x="10" y="394">  │ ├── lodash.assignin@4.2.0 </tspan>
<tspan x="10" y="410">  │ ├── lodash.bind@4.2.1 </tspan>
<tspan x="10" y="426">  │ ├── lodash.defaults@4.2.0 </tspan>
<tspan x="10" y="442">  │ ├── lodash.filter@4.6.0 </tspan>
<tspan x="10" y="458">  │ ├── lodash.flatten@4.4.0 </tspan>
<tspan x="10" y="474">  │ ├── lodash.foreach@4.5.0 </tspan>
<tspan x="10" y="490">  │ ├── lodash.map@4.6.0 </tspan>
<tspan x="10" y="506">  │ ├── lodash.merge@4.6.0 </tspan>
<tspan x="10" y="522">  │ ├── lodash.pick@4.4.0 </tspan>
<tspan x="10" y="538">  │ ├── lodash.reduce@4.6.0 </tspan>
<tspan x="10" y="554">  │ ├── lodash.reject@4.6.0 </tspan>
<tspan x="10" y="570">  │ └── lodash.some@4.6.0 </tspan>
<tspan x="10" y="586">  ├─┬ gulp-util@2.2.20 </tspan>
<tspan x="10" y="602">  │ ├─┬ chalk@0.5.1 </tspan>
<tspan x="10" y="618">  │ │ ├── ansi-styles@1.1.0 </tspan>
<tspan x="10" y="634">  │ │ ├── escape-string-regexp@1.0.5 </tspan>
<tspan x="10" y="650">  │ │ ├─┬ has-ansi@0.1.0 </tspan>
<tspan x="10" y="666">  │ │ │ └── ansi-regex@0.2.1 </tspan>
<tspan x="10" y="682">  │ │ ├── strip-ansi@0.3.0 </tspan>
<tspan x="10" y="698">  │ │ └── supports-color@0.2.0 </tspan>
<tspan x="10" y="714">  │ ├─┬ dateformat@1.0.12 </tspan>
<tspan x="10" y="730">  │ │ ├── get-stdin@4.0.1 </tspan>
<tspan x="10" y="746">  │ │ └─┬ meow@3.7.0 </tspan>
<tspan x="10" y="762">  │ │   ├─┬ camelcase-keys@2.1.0 </tspan>
<tspan x="10" y="778">  │ │   │ └── camelcase@2.1.1 </tspan>
<tspan x="10" y="794">  │ │   ├── decamelize@1.2.0 </tspan>
<tspan x="10" y="810">  │ │   ├─┬ loud-rejection@1.6.0 </tspan>
<tspan x="10" y="826">  │ │   │ ├─┬ currently-unhandled@0.4.1 </tspan>
<tspan x="10" y="842">  │ │   │ │ └── array-find-index@1.0.2 </tspan>
<tspan x="10" y="858">  │ │   │ └── signal-exit@3.0.2 </tspan>
<tspan x="10" y="874">  │ │   ├── map-obj@1.0.1 </tspan>
<tspan x="10" y="890">  │ │   ├── minimist@1.2.0 </tspan>
<tspan x="10" y="906">  │ │   ├─┬ normalize-package-data@2.3.8 </tspan>
<tspan x="10" y="922">  │ │   │ ├── hosted-git-info@2.4.2 </tspan>
<tspan x="10" y="938">  │ │   │ ├─┬ is-builtin-module@1.0.0 </tspan>
<tspan x="10" y="954">  │ │   │ │ └── builtin-modules@1.1.1 </tspan>
<tspan x="10" y="970">  │ │   │ ├── semver@5.3.0 </tspan>
<tspan x="10" y="986">  │ │   │ └─┬ validate-npm-package-license@3.0.1 </tspan>
<tspan x="10" y="1002">  │ │   │   ├─┬ spdx-correct@1.0.2 </tspan>
<tspan x="10" y="1018">  │ │   │   │ └── spdx-license-ids@1.2.2 </tspan>
<tspan x="10" y="1034">  │ │   │   └── spdx-expression-parse@1.0.4 </tspan>
<tspan x="10" y="1050">  │ │   ├── object-assign@4.1.1 </tspan>
<tspan x="10" y="1066">  │ │   ├─┬ read-pkg-up@1.0.1 </tspan>
<tspan x="10" y="1082">  │ │   │ ├─┬ find-up@1.1.2 </tspan>
<tspan x="10" y="1098">  │ │   │ │ ├── path-exists@2.1.0 </tspan>
<tspan x="10" y="1114">  │ │   │ │ └─┬ pinkie-promise@2.0.1 </tspan>
<tspan x="10" y="1130">  │ │   │ │   └── pinkie@2.0.4 </tspan>
<tspan x="10" y="1146">  │ │   │ └─┬ read-pkg@1.1.0 </tspan>
<tspan x="10" y="1162">  │ │   │   ├─┬ load-json-file@1.1.0 </tspan>
<tspan x="10" y="1178">  │ │   │   │ ├── graceful-fs@4.1.11 </tspan>
<tspan x="10" y="1194">  │ │   │   │ ├─┬ parse-json@2.2.0 </tspan>
<tspan x="10" y="1210">  │ │   │   │ │ └─┬ error-ex@1.3.1 </tspan>
<tspan x="10" y="1226">  │ │   │   │ │   └── is-arrayish@0.2.1 </tspan>
<tspan x="10" y="1242">  │ │   │   │ ├── pify@2.3.0 </tspan>
<tspan x="10" y="1258">  │ │   │   │ └─┬ strip-bom@2.0.0 </tspan>
<tspan x="10" y="1274">  │ │   │   │   └── is-utf8@0.2.1 </tspan>
<tspan x="10" y="1290">  │ │   │   └── path-type@1.1.0 </tspan>
<tspan x="10" y="1306">  │ │   ├─┬ redent@1.0.0 </tspan>
<tspan x="10" y="1322">  │ │   │ ├─┬ indent-string@2.1.0 </tspan>
<tspan x="10" y="1338">  │ │   │ │ └─┬ repeating@2.0.1 </tspan>
<tspan x="10" y="1354">  │ │   │ │   └─┬ is-finite@1.0.2 </tspan>
<tspan x="10" y="1370">  │ │   │ │     └── number-is-nan@1.0.1 </tspan>
<tspan x="10" y="1386">  │ │   │ └── strip-indent@1.0.1 </tspan>
<tspan x="10" y="1402">  │ │   └── trim-newlines@1.0.0 </tspan>
<tspan x="10" y="1418">  │ ├── lodash._reinterpolate@2.4.1 </tspan>
<tspan x="10" y="1434">  │ ├─┬ lodash.template@2.4.1 </tspan>
<tspan x="10" y="1450">  │ │ ├── lodash._escapestringchar@2.4.1 </tspan>
<tspan x="10" y="1466">  │ │ ├─┬ lodash.defaults@2.4.1 </tspan>
<tspan x="10" y="1482">  │ │ │ └── lodash._objecttypes@2.4.1 </tspan>
<tspan x="10" y="1498">  │ │ ├─┬ lodash.escape@2.4.1 </tspan>
<tspan x="10" y="1514">  │ │ │ ├─┬ lodash._escapehtmlchar@2.4.1 </tspan>
<tspan x="10" y="1530">  │ │ │ │ └── lodash._htmlescapes@2.4.1 </tspan>
<tspan x="10" y="1546">  │ │ │ └── lodash._reunescapedhtml@2.4.1 </tspan>
<tspan x="10" y="1562">  │ │ ├─┬ lodash.keys@2.4.1 </tspan>
<tspan x="10" y="1578">  │ │ │ ├── lodash._isnative@2.4.1 </tspan>
<tspan x="10" y="1594">  │ │ │ ├── lodash._shimkeys@2.4.1 </tspan>
<tspan x="10" y="1610">  │ │ │ └── lodash.isobject@2.4.1 </tspan>
<tspan x="10" y="1626">  │ │ ├── lodash.templatesettings@2.4.1 </tspan>
<tspan x="10" y="1642">  │ │ └── lodash.values@2.4.1 </tspan>
<tspan x="10" y="1658">  │ ├── minimist@0.2.0 </tspan>
<tspan x="10" y="1674">  │ ├─┬ multipipe@0.1.2 </tspan>
<tspan x="10" y="1690">  │ │ └─┬ duplexer2@0.0.2 </tspan>
<tspan x="10" y="1706">  │ │   └─┬ readable-stream@1.1.14 </tspan>
<tspan x="10" y="1722">  │ │     ├── isarray@0.0.1 </tspan>
<tspan x="10" y="1738">  │ │     └── string_decoder@0.10.31 </tspan>
<tspan x="10" y="1754">  │ ├─┬ through2@0.5.1 </tspan>
<tspan x="10" y="1770">  │ │ ├─┬ readable-stream@1.0.34 </tspan>
<tspan x="10" y="1786">  │ │ │ ├── isarray@0.0.1 </tspan>
<tspan x="10" y="1802">  │ │ │ └── string_decoder@0.10.31 </tspan>
<tspan x="10" y="1818">  │ │ └── xtend@3.0.0 </tspan>
<tspan x="10" y="1834">  │ └─┬ vinyl@0.2.3 </tspan>
<tspan x="10" y="1850">  │   └── clone-stats@0.0.1 </tspan>
<tspan x="10" y="1866">  └─┬ through2@0.6.5 </tspan>
<tspan x="10" y="1882">    ├─┬ readable-stream@1.0.34 </tspan>
<tspan x="10" y="1898">    │ ├── core-util-is@1.0.2 </tspan>
<tspan x="10" y="1914">    │ ├── isarray@0.0.1 </tspan>
<tspan x="10" y="1930">    │ └── string_decoder@0.10.31 </tspan>
<tspan x="10" y="1946">    └── xtend@4.0.1</tspan>
</text>
</svg>
